<?xml version="1.0" encoding="utf-8"?>
<!-- Generator: Adobe Illustrator 21.0.0, SVG Export Plug-In . SVG Version: 6.00 Build 0)  -->
<svg version="1.1" id="Layer_1" xmlns="http://www.w3.org/2000/svg" xmlns:xlink="http://www.w3.org/1999/xlink" x="0px" y="0px"
	 viewBox="0 0 120.2 223.7" style="enable-background:new 0 0 120.2 223.7;" xml:space="preserve">
<style type="text/css">
	.st0{fill:#F4F3F4;}
	.st1{fill:url(#SVGID_1_);}
	.st2{opacity:0.2;fill:#020203;}
	.st3{display:none;}
	.st4{display:inline;}
	.st5{fill:#3B3A3A;}
	.st6{fill:url(#SVGID_2_);}
	.st7{display:inline;opacity:0.8;fill:#020203;}
</style>
<g>
	<g>
		<path class="st0" d="M69.9,180.6l-5.4-5.4l-8.2,8.2l0.5,0.5l5.4,5.4l5.1,5.1l2.9,2.9l0.2,0.2l0,0c0.5,1,0.8,2,0.8,3.2
			c0,2.8-1.6,5.1-3.9,6.3c-1,0.3-2.1,0.5-3.1,0.8c-3.1,0.7-6.3,1.3-9.5,1.6c-2.2,0.2-4.4,0.3-6.6,0.4c-0.6,0-1.1,0-1.7,0
			c-0.8,0-1.5,0-2.3-0.1c-4.7-0.1-9.3-0.7-13.8-1.6c-0.9-0.2-1.8-0.4-2.7-0.6c-0.8-0.2-1.6-0.4-2.4-0.6c-2.4-1.1-4.1-3.6-4.1-6.4
			c0-1,0.2-1.9,0.5-2.7c0.6-0.8,1.1-1.6,1.7-2.4c2.8-4.2,5.4-8.6,7.8-13c3.4-6.4,6.5-13.1,9-20c4.6,1.3,9.4,2,14.3,2
			c10.3,0,19.9-3,28-8.1c1.9-1.2,3.7-2.5,5.4-3.9c1.7-1.2,3.3-2.7,4.6-4.3c3.1-3.8,4.9-8.6,5-13.8c0-0.2,0-0.3,0-0.5
			c0-0.1,0-0.1,0-0.2c0-0.4,0-0.9,0-1.3c0-6.5-0.7-12.8-2-18.9c-2.5-11.8-7.3-22.7-13.9-32.3c-4.2-6.2-9.2-11.8-14.8-16.7
			c-1.7-1.5-3.5-3-5.4-4.4c-3.5-2.7-7.3-5.1-11.2-7.2c-1-0.6-2.1-1.1-3.2-1.6c-0.2-0.1-0.4-0.2-0.7-0.3c-3.8-2.5-6.8-6.3-8.4-10.6
			C37.4,37.9,37,35.5,37,33c0-11.7,9-21.1,20.6-21.2V0.4c-15.5,0.3-28.3,11.4-31.3,26c-0.4,2.1-0.7,4.3-0.7,6.6
			c0,3.1,0.4,6.1,1.2,8.9c0.2,0.7,0.4,1.4,0.7,2.1c1.1,3,2.6,5.9,4.5,8.4c2.4,3.3,5.5,6.1,9,8.3c0.2,0.1,0.4,0.3,0.7,0.4
			c0.3,0.1,0.5,0.3,0.8,0.4c1,0.5,2,1.1,3.1,1.5c4.1,2.3,8,4.9,11.6,7.9c13,10.6,22.5,25.3,26.7,42.1c1.3,5.2,2.1,10.7,2.3,16.3
			c0,0.9,0.1,1.7,0.1,2.6c-0.2,4.5-2.2,8.6-5.3,11.6c-0.9,0.8-1.8,1.5-2.8,2.2c-4.8,3.4-10.3,5.7-16.3,6.8c-2.4,0.4-4.8,0.7-7.3,0.7
			c-3.7,0-7.4-0.5-10.8-1.5c3.9-13.6,6-28.1,6-43c0-8-0.6-15.9-1.8-23.5c0-1.8-0.3-3.4-0.9-5c-0.9-2.9-2.6-5.4-4.8-7.4
			c-2.6-2.3-5.9-3.9-9.5-4.2c-0.6-0.1-1.2-0.1-1.8-0.1c-3.5,0-6.7,1-9.4,2.8c-1.4,0.9-2.6,2-3.7,3.3C8.1,84,2.1,97.3,2.1,112
			c0,20,11.2,37.3,27.6,46.2c-3.9,10.7-9.1,20.9-15.3,30.3c-1,1.1-1.8,2.3-2.5,3.7c-1.3,2.5-2.1,5.4-2.1,8.4c0,0.1,0,0.2,0,0.4
			c0.1,3.3,1,6.3,2.5,9c0.3,0.5,0.7,1.1,1,1.6c2.1,2.9,5.1,5.1,8.5,6.4c1.1,0.4,2.2,0.7,3.4,0.9c1.8,0.4,3.7,0.8,5.6,1.1
			c5.1,0.9,10.3,1.3,15.6,1.3c6.7,0,13.2-0.7,19.5-2.1c1.8-0.2,3.5-0.6,5.1-1.3c6.6-2.7,11.3-9.1,11.5-16.6c0-0.1,0-0.3,0-0.4
			c0-4.3-1.5-8.3-4-11.4l0,0l-0.1-0.1c-0.2-0.2-0.3-0.4-0.5-0.6L69.9,180.6z M33.2,147.1c-11.8-7.2-19.8-20.2-19.8-35.1
			c0-6,1.3-11.6,3.6-16.7c2.3-5.2,5.6-9.7,9.7-13.5c0.2-0.2,0.4-0.4,0.6-0.5c1-0.8,2.2-1.2,3.5-1.2c2.7,0,5,1.9,5.5,4.4
			c0.1,0.2,0.1,0.5,0.1,0.7c0.8,5.2,1.4,10.4,1.7,15.7c0.1,2.6,0.2,5.2,0.2,7.8C38.4,122,36.6,134.9,33.2,147.1z"/>
	</g>
	<g>
		<linearGradient id="SVGID_1_" gradientUnits="userSpaceOnUse" x1="57.594" y1="19.8267" x2="120.1643" y2="19.8267">
			<stop  offset="0" style="stop-color:#F29104"/>
			<stop  offset="1" style="stop-color:#E8501D"/>
		</linearGradient>
		<path class="st1" d="M58.3,0.4h-0.2c-0.2,0-0.4,0-0.5,0v11.3H58h0.5h6.3h15.1h3.1h0.4H97h3.1c0.8,0.2,1.5,0.5,2.2,0.9
			c0.7,0.6,1.3,1.2,1.9,1.8c2.6,2.9,4.3,6.5,4.6,10.5c0,0.2,0,0.4,0,0.7c-0.1,1.2-1,2.1-2.1,2.2h-0.5H90.4h-4.4h-7.2h-3.7v9.2v2.1
			h1.7h1.7h11.7H104l9.6,0c0.2,0,0.4,0,0.7,0c2-0.2,3.9-1.4,4.5-3.3c0.6-1.9,1.2-6,1.4-8c0-0.4,0-0.7,0-1.1c0-5.5-1.5-10.6-4.1-15.1
			c-0.6-1.1-1.3-2.1-2.1-3.1c-1.9-2.7-3.9-4.9-6.7-6.4c-2-1.1-4.3-1.7-6.7-1.9c-0.4,0-0.8-0.1-1.2-0.1L58.3,0.4z"/>
	</g>
	<path class="st2" d="M26,167.1l10.5,4.4c1.3-3,2.6-6,3.7-9.1c-3.7-1-7.2-2.5-10.5-4.3C28.6,161.2,27.3,164.2,26,167.1z"/>
</g>
<g class="st3">
	<g class="st4">
		<path class="st5" d="M69.9,180.2l-5.4-5.4l-8.2,8.2l0.5,0.5l5.4,5.4l5.1,5.1l2.9,2.9l0.2,0.2l0,0c0.5,1,0.8,2,0.8,3.2
			c0,2.8-1.6,5.1-3.9,6.3c-1,0.3-2.1,0.5-3.1,0.8c-3.1,0.7-6.3,1.3-9.5,1.6c-2.2,0.2-4.4,0.3-6.6,0.4c-0.6,0-1.1,0-1.7,0
			c-0.8,0-1.5,0-2.3-0.1c-4.7-0.1-9.3-0.7-13.8-1.6c-0.9-0.2-1.8-0.4-2.7-0.6c-0.8-0.2-1.6-0.4-2.4-0.6c-2.4-1.1-4.1-3.6-4.1-6.4
			c0-1,0.2-1.9,0.5-2.7c0.6-0.8,1.1-1.6,1.7-2.4c2.8-4.2,5.4-8.6,7.8-13c3.4-6.4,6.5-13.1,9-20c4.6,1.3,9.4,2,14.3,2
			c10.3,0,19.9-3,28-8.1c1.9-1.2,3.7-2.5,5.4-3.9c1.7-1.2,3.3-2.7,4.6-4.3c3.1-3.8,4.9-8.6,5-13.8c0-0.2,0-0.3,0-0.5
			c0-0.1,0-0.1,0-0.2c0-0.4,0-0.9,0-1.3c0-6.5-0.7-12.8-2-18.9c-2.5-11.8-7.3-22.7-13.9-32.3C77.5,74.6,72.5,68.9,67,64
			c-1.7-1.5-3.5-3-5.4-4.4c-3.5-2.7-7.3-5.1-11.2-7.2c-1-0.6-2.1-1.1-3.2-1.6c-0.2-0.1-0.4-0.2-0.7-0.3c-3.8-2.5-6.8-6.3-8.4-10.6
			c-0.8-2.2-1.3-4.6-1.3-7.1c0-11.7,9-21.1,20.6-21.2V0C42.1,0.3,29.3,11.4,26.3,26c-0.4,2.1-0.7,4.3-0.7,6.6c0,3.1,0.4,6.1,1.2,8.9
			c0.2,0.7,0.4,1.4,0.7,2.1c1.1,3,2.6,5.9,4.5,8.4c2.4,3.3,5.5,6.1,9,8.3c0.2,0.1,0.4,0.3,0.7,0.4c0.3,0.1,0.5,0.3,0.8,0.4
			c1,0.5,2,1.1,3.1,1.5c4.1,2.3,8,4.9,11.6,7.9c13,10.6,22.5,25.3,26.7,42.1c1.3,5.2,2.1,10.7,2.3,16.3c0,0.9,0.1,1.7,0.1,2.6
			C86,136,84.1,140.1,81,143c-0.9,0.8-1.8,1.5-2.8,2.2c-4.8,3.4-10.3,5.7-16.3,6.8c-2.4,0.4-4.8,0.7-7.3,0.7
			c-3.7,0-7.4-0.5-10.8-1.5c3.9-13.6,6-28.1,6-43c0-8-0.6-15.9-1.8-23.5c0-1.8-0.3-3.4-0.9-5c-0.9-2.9-2.6-5.4-4.8-7.4
			c-2.6-2.3-5.9-3.9-9.5-4.2C32.1,68,31.5,68,30.9,68c-3.5,0-6.7,1-9.4,2.8c-1.4,0.9-2.6,2-3.7,3.3C8.1,83.6,2.1,96.9,2.1,111.5
			c0,20,11.2,37.3,27.6,46.2c-3.9,10.7-9.1,20.9-15.3,30.3c-1,1.1-1.8,2.3-2.5,3.7c-1.3,2.5-2.1,5.4-2.1,8.4c0,0.1,0,0.2,0,0.4
			c0.1,3.3,1,6.3,2.5,9c0.3,0.5,0.7,1.1,1,1.6c2.1,2.9,5.1,5.1,8.5,6.4c1.1,0.4,2.2,0.7,3.4,0.9c1.8,0.4,3.7,0.8,5.6,1.1
			c5.1,0.9,10.3,1.3,15.6,1.3c6.7,0,13.2-0.7,19.5-2.1c1.8-0.2,3.5-0.6,5.1-1.3c6.6-2.7,11.3-9.1,11.5-16.6c0-0.1,0-0.3,0-0.4
			c0-4.3-1.5-8.3-4-11.4l0,0l-0.1-0.1c-0.2-0.2-0.3-0.4-0.5-0.6L69.9,180.2z M33.2,146.7c-11.8-7.2-19.8-20.2-19.8-35.1
			c0-6,1.3-11.6,3.6-16.7c2.3-5.2,5.6-9.7,9.7-13.5c0.2-0.2,0.4-0.4,0.6-0.5c1-0.8,2.2-1.2,3.5-1.2c2.7,0,5,1.9,5.5,4.4
			c0.1,0.2,0.1,0.5,0.1,0.7c0.8,5.2,1.4,10.4,1.7,15.7c0.1,2.6,0.2,5.2,0.2,7.8C38.4,121.5,36.6,134.4,33.2,146.7z"/>
	</g>
	<g class="st4">
		<linearGradient id="SVGID_2_" gradientUnits="userSpaceOnUse" x1="57.6042" y1="19.3943" x2="120.1745" y2="19.3943">
			<stop  offset="0" style="stop-color:#E8501D"/>
			<stop  offset="1" style="stop-color:#F29104"/>
		</linearGradient>
		<path class="st6" d="M58.3,0h-0.2c-0.2,0-0.4,0-0.5,0v11.3H58h0.5h6.3h15.1h3.1h0.4H97h3.1c0.8,0.2,1.5,0.5,2.2,0.9
			c0.7,0.6,1.3,1.2,1.9,1.8c2.6,2.9,4.3,6.5,4.6,10.5c0,0.2,0,0.4,0,0.7c-0.1,1.2-1,2.1-2.1,2.2h-0.5H90.4h-4.4h-7.2h-3.7v9.2v2.1
			h1.7h1.7h11.7H104l9.6,0c0.2,0,0.4,0,0.7,0c2-0.2,3.9-1.4,4.5-3.3c0.6-1.9,1.2-6,1.4-8c0-0.4,0-0.7,0-1.1c0-5.5-1.5-10.6-4.1-15.1
			c-0.6-1.1-1.3-2.1-2.1-3.1c-1.9-2.7-3.9-4.9-6.7-6.4c-2-1.1-4.3-1.7-6.7-1.9c-0.4,0-0.8-0.1-1.2-0.1L58.3,0z"/>
	</g>
	<path class="st7" d="M26,166.7l10.5,4.4c1.3-3,2.6-6,3.7-9.1c-3.7-1-7.2-2.5-10.5-4.3C28.6,160.8,27.4,163.8,26,166.7z"/>
</g>
</svg>
